<svg width="18" height="18" viewBox="0 0 18 18" fill="none" xmlns="http://www.w3.org/2000/svg">
<g clip-path="url(#clip0_107_353)">
<path d="M17.6918 3.21954C17.528 1.68448 16.3157 0.471863 14.7805 0.308167C10.9306 -0.102722 7.06943 -0.102722 3.21968 0.308167C1.68448 0.472 0.472 1.68448 0.308167 3.21954C-0.102722 7.06929 -0.102722 10.9306 0.308167 14.7803C0.472 16.3155 1.68448 17.528 3.21954 17.6918C7.06929 18.1027 10.9306 18.1027 14.7805 17.6918C16.3157 17.528 17.528 16.3155 17.6918 14.7803C18.1027 10.9306 18.1027 7.06943 17.6918 3.21954Z" fill="url(#paint0_radial_107_353)"/>
<path d="M16.7128 3.8706C16.5675 2.50843 15.4917 1.43246 14.1294 1.28703C10.7132 0.922554 7.2868 0.922554 3.8706 1.28703C2.50843 1.43246 1.43246 2.50843 1.28703 3.8706C0.922554 7.2868 0.922554 10.7132 1.28703 14.1292C1.43246 15.4915 2.50843 16.5675 3.8706 16.7128C7.2868 17.0774 10.7132 17.0774 14.1292 16.7128C15.4915 16.5675 16.5675 15.4915 16.7128 14.1292C17.0774 10.7132 17.0774 7.2868 16.7128 3.8706Z" fill="url(#paint1_linear_107_353)"/>
<path d="M0.269531 14.4072C0.281891 14.5316 0.294662 14.6561 0.307983 14.7805C0.471817 16.3156 1.6843 17.528 3.2195 17.6919C7.06924 18.1028 10.9305 18.1028 14.7803 17.6919C16.3155 17.528 17.5278 16.3156 17.6917 14.7805C17.705 14.6561 17.7177 14.5316 17.7302 14.4072H0.269531Z" fill="url(#paint2_linear_107_353)"/>
<path d="M17.6916 14.7804C17.9124 12.7118 18.0143 10.6399 17.9978 8.56832L13.8835 4.45394C13.3694 3.86713 12.6187 3.50088 11.7365 3.46915C9.92221 3.40378 8.10219 3.40708 6.28766 3.46943C4.78061 3.52134 3.72675 4.53428 3.45648 6.02306C3.40883 6.28591 3.38026 6.55219 3.34277 6.81696V11.1816C3.36351 11.323 3.394 11.4638 3.40347 11.606C3.4639 12.5116 3.83606 13.2872 4.43193 13.812L8.61882 17.9987C10.6735 18.0131 12.7284 17.911 14.7802 17.6919C16.3154 17.5281 17.5278 16.3156 17.6916 14.7804Z" fill="url(#paint3_linear_107_353)"/>
<path d="M17.6917 14.7804C17.528 16.3153 16.3152 17.5281 14.7803 17.6918C12.7288 17.9107 10.6735 18.013 8.61905 17.9986L4.43848 13.818C4.92311 14.2422 5.55482 14.5005 6.28789 14.5281C8.10201 14.5962 9.92244 14.5945 11.7366 14.5291C13.3774 14.4698 14.5647 13.2554 14.6159 11.6145C14.6706 9.87239 14.6706 8.1257 14.6159 6.38354C14.5926 5.62659 14.3269 4.96054 13.8863 4.45654L17.9981 8.56831C18.0143 10.6396 17.9124 12.7118 17.6917 14.7804Z" fill="url(#paint4_linear_107_353)"/>
<path d="M11.1237 7.05092C10.5966 6.47702 9.84038 6.11694 8.99979 6.11694C7.40759 6.11694 6.1167 7.40784 6.1167 9.00003C6.1167 9.84062 6.47678 10.5969 7.05067 11.124L13.7212 17.7944C14.0742 17.7637 14.4273 17.7295 14.7801 17.6919C16.3153 17.528 17.5278 16.3156 17.6916 14.7803C17.7292 14.4276 17.7634 14.0745 17.7942 13.7214L11.1237 7.05092Z" fill="url(#paint5_linear_107_353)"/>
<path d="M17.9653 10.939L12.5969 5.57065C12.4716 5.40627 12.2743 5.29956 12.0517 5.29956C11.6729 5.29956 11.3657 5.60663 11.3657 5.98552C11.3657 6.20813 11.4724 6.40547 11.6368 6.53072L17.8694 12.7634C17.9117 12.1554 17.9436 11.5472 17.9653 10.939Z" fill="url(#paint6_linear_107_353)"/>
<path d="M3.34277 6.81696C3.38026 6.55219 3.40883 6.28591 3.45648 6.02306C3.72661 4.53428 4.78061 3.52134 6.28766 3.46943C8.10219 3.40708 9.92221 3.40378 11.7365 3.46915C13.3767 3.5282 14.5646 4.74274 14.6158 6.38355C14.6704 8.12584 14.6704 9.8724 14.6158 11.6147C14.5646 13.2555 13.3771 14.4699 11.7366 14.5291C9.92235 14.5946 8.10191 14.5962 6.2878 14.5281C4.64726 14.4665 3.5132 13.2492 3.40347 11.6059C3.394 11.4638 3.36351 11.3229 3.34277 11.1814C3.34277 9.72655 3.34277 8.27169 3.34277 6.81696ZM9.00128 13.5567C9.83157 13.5567 10.6627 13.5815 11.4919 13.5509C12.792 13.5027 13.5916 12.7268 13.622 11.4279C13.6596 9.8095 13.6596 8.18888 13.622 6.57032C13.5916 5.27173 12.7914 4.4777 11.4919 4.45009C9.84242 4.41521 8.19118 4.41549 6.54172 4.45009C5.25206 4.47715 4.45006 5.25512 4.41504 6.53942C4.37054 8.1783 4.37054 9.82007 4.41504 11.459C4.45006 12.7431 5.25206 13.5031 6.54185 13.5509C7.36061 13.5814 8.18143 13.5567 9.00128 13.5567Z" fill="url(#paint7_linear_107_353)"/>
<path d="M3.34277 6.81696C3.38026 6.55219 3.40883 6.28591 3.45648 6.02306C3.72661 4.53428 4.78061 3.52134 6.28766 3.46943C8.10219 3.40708 9.92221 3.40378 11.7365 3.46915C13.3767 3.5282 14.5646 4.74274 14.6158 6.38355C14.6704 8.12584 14.6704 9.8724 14.6158 11.6147C14.5646 13.2555 13.3771 14.4699 11.7366 14.5291C9.92235 14.5946 8.10191 14.5962 6.2878 14.5281C4.64726 14.4665 3.5132 13.2492 3.40347 11.6059C3.394 11.4638 3.36351 11.3229 3.34277 11.1814C3.34277 9.72655 3.34277 8.27169 3.34277 6.81696ZM9.00128 13.5567C9.83157 13.5567 10.6627 13.5815 11.4919 13.5509C12.792 13.5027 13.5916 12.7268 13.622 11.4279C13.6596 9.8095 13.6596 8.18888 13.622 6.57032C13.5916 5.27173 12.7914 4.4777 11.4919 4.45009C9.84242 4.41521 8.19118 4.41549 6.54172 4.45009C5.25206 4.47715 4.45006 5.25512 4.41504 6.53942C4.37054 8.1783 4.37054 9.82007 4.41504 11.459C4.45006 12.7431 5.25206 13.5031 6.54185 13.5509C7.36061 13.5814 8.18143 13.5567 9.00128 13.5567Z" fill="#F0F0F0"/>
<path d="M8.99979 6.11694C7.40759 6.11694 6.1167 7.4077 6.1167 8.99989C6.1167 10.5922 7.40759 11.883 8.99979 11.883C10.5921 11.883 11.8829 10.5922 11.8829 8.99989C11.8829 7.4077 10.5921 6.11694 8.99979 6.11694ZM8.99979 10.8904C7.95567 10.8904 7.10931 10.044 7.10931 8.99989C7.10931 7.95578 7.95567 7.10942 8.99979 7.10942C10.0439 7.10942 10.8903 7.95578 10.8903 8.99989C10.8903 10.044 10.0439 10.8904 8.99979 10.8904Z" fill="#F0F0F0"/>
<path d="M12.737 5.98528C12.737 6.36403 12.4299 6.6711 12.0512 6.6711C11.6724 6.6711 11.3652 6.36403 11.3652 5.98528C11.3652 5.60638 11.6724 5.29932 12.0512 5.29932C12.4299 5.29932 12.737 5.60638 12.737 5.98528Z" fill="#F0F0F0"/>
</g>
<defs>
<radialGradient id="paint0_radial_107_353" cx="0" cy="0" r="1" gradientUnits="userSpaceOnUse" gradientTransform="translate(3.6899 15.7306) scale(19.8508)">
<stop stop-color="#FAE100"/>
<stop offset="0.0544" stop-color="#FADC04"/>
<stop offset="0.1167" stop-color="#FBCE0E"/>
<stop offset="0.1829" stop-color="#FCB720"/>
<stop offset="0.2514" stop-color="#FE9838"/>
<stop offset="0.3054" stop-color="#FF7950"/>
<stop offset="0.4922" stop-color="#FF1C74"/>
<stop offset="1" stop-color="#6C1CD1"/>
</radialGradient>
<linearGradient id="paint1_linear_107_353" x1="6.9037" y1="7.82083" x2="-23.5904" y2="-9.33212" gradientUnits="userSpaceOnUse">
<stop stop-color="#A1B5D8" stop-opacity="0"/>
<stop offset="0.3094" stop-color="#90A2BD" stop-opacity="0.309804"/>
<stop offset="0.7554" stop-color="#7C8B9C" stop-opacity="0.756863"/>
<stop offset="1" stop-color="#748290"/>
</linearGradient>
<linearGradient id="paint2_linear_107_353" x1="8.99983" y1="15.8895" x2="8.99983" y2="18.6952" gradientUnits="userSpaceOnUse">
<stop stop-color="#FAE100" stop-opacity="0"/>
<stop offset="0.3068" stop-color="#FCA800" stop-opacity="0.305882"/>
<stop offset="0.6275" stop-color="#FE7300" stop-opacity="0.627451"/>
<stop offset="0.8685" stop-color="#FF5200" stop-opacity="0.866667"/>
<stop offset="1" stop-color="#FF4500"/>
</linearGradient>
<linearGradient id="paint3_linear_107_353" x1="7.97575" y1="7.9506" x2="3.52105" y2="3.49588" gradientUnits="userSpaceOnUse">
<stop stop-color="#833AB4" stop-opacity="0"/>
<stop offset="1" stop-color="#833AB4"/>
</linearGradient>
<linearGradient id="paint4_linear_107_353" x1="12.3362" y1="16.4632" x2="10.1128" y2="5.98134" gradientUnits="userSpaceOnUse">
<stop stop-color="#833AB4" stop-opacity="0"/>
<stop offset="1" stop-color="#833AB4"/>
</linearGradient>
<linearGradient id="paint5_linear_107_353" x1="13.1822" y1="13.1824" x2="4.25162" y2="4.25186" gradientUnits="userSpaceOnUse">
<stop stop-color="#833AB4" stop-opacity="0"/>
<stop offset="1" stop-color="#833AB4"/>
</linearGradient>
<linearGradient id="paint6_linear_107_353" x1="13.845" y1="7.77881" x2="10.8918" y2="4.82566" gradientUnits="userSpaceOnUse">
<stop stop-color="#833AB4" stop-opacity="0"/>
<stop offset="1" stop-color="#833AB4"/>
</linearGradient>
<linearGradient id="paint7_linear_107_353" x1="12.5737" y1="5.45104" x2="5.29229" y2="12.7325" gradientUnits="userSpaceOnUse">
<stop stop-color="#833AB4"/>
<stop offset="0.0922" stop-color="#9C3495"/>
<stop offset="0.2927" stop-color="#DC2546"/>
<stop offset="0.392" stop-color="#FD1D1D"/>
<stop offset="0.5589" stop-color="#FC6831"/>
<stop offset="0.6887" stop-color="#FC9B40"/>
<stop offset="0.7521" stop-color="#FCAF45"/>
<stop offset="0.7806" stop-color="#FDB750"/>
<stop offset="0.8656" stop-color="#FECB6A"/>
<stop offset="0.9415" stop-color="#FFD87A"/>
<stop offset="1" stop-color="#FFDC80"/>
</linearGradient>
<clipPath id="clip0_107_353">
<rect width="18" height="18" fill="white"/>
</clipPath>
</defs>
</svg>
